<?xml version="1.0" encoding="utf-8"?>
<!-- Generator: Adobe Illustrator 16.0.0, SVG Export Plug-In . SVG Version: 6.00 Build 0)  -->
<!DOCTYPE svg PUBLIC "-//W3C//DTD SVG 1.1//EN" "http://www.w3.org/Graphics/SVG/1.1/DTD/svg11.dtd">
<svg version="1.1" id="Capa_1" xmlns="http://www.w3.org/2000/svg" xmlns:xlink="http://www.w3.org/1999/xlink" x="0px" y="0px"
	 width="300px" height="300px" viewBox="0 0 300 300" enable-background="new 0 0 300 300" xml:space="preserve">
<g>
	<path fill="#CCCCCC" d="M249.965,291.541H50.036c-22.926,0-41.577-18.652-41.577-41.574V50.034
		c0-22.925,18.651-41.575,41.577-41.575h199.929c22.924,0,41.576,18.65,41.576,41.575v199.933
		C291.541,272.889,272.889,291.541,249.965,291.541z M50.036,11.01c-21.521,0-39.026,17.507-39.026,39.024v199.933
		c0,21.519,17.505,39.024,39.026,39.024h199.929c21.518,0,39.026-17.506,39.026-39.024V50.034c0-21.518-17.509-39.024-39.026-39.024
		H50.036z"/>
	<g>
		<path fill="#6D6E70" d="M61.803,218.052l3.876-14.118h3.427l3.876,14.118h-1.55l-1.02-3.632h-6.039l-1.021,3.632H61.803z
			 M66.862,205.28l-2.142,7.732h5.345l-2.142-7.732H66.862z"/>
		<path fill="#6D6E70" d="M78.145,209.014c-1.483,0-2.224,0.517-2.224,1.551c0,0.476,0.17,0.813,0.51,1.01
			c0.34,0.197,1.115,0.401,2.326,0.612c1.21,0.211,2.067,0.507,2.571,0.887c0.503,0.381,0.755,1.096,0.755,2.143
			c0,1.048-0.337,1.815-1.01,2.306c-0.673,0.489-1.656,0.734-2.948,0.734c-0.844,0-1.836-0.096-2.979-0.286l-0.612-0.102
			l0.082-1.326c1.55,0.231,2.72,0.347,3.509,0.347c0.789,0,1.391-0.125,1.806-0.377c0.415-0.252,0.622-0.674,0.622-1.266
			s-0.177-0.992-0.53-1.203c-0.354-0.211-1.129-0.411-2.326-0.603c-1.197-0.189-2.047-0.469-2.55-0.836s-0.755-1.047-0.755-2.04
			s0.35-1.728,1.051-2.204c0.701-0.476,1.574-0.714,2.622-0.714c0.83,0,1.87,0.096,3.122,0.286l0.571,0.102l-0.041,1.306
			C80.206,209.123,79.015,209.014,78.145,209.014z"/>
		<path fill="#6D6E70" d="M84.428,205.545v-1.774h1.53v1.774H84.428z M84.428,218.052v-10.201h1.53v10.201H84.428z"/>
		<path fill="#6D6E70" d="M92.1,209.014c-1.483,0-2.224,0.517-2.224,1.551c0,0.476,0.17,0.813,0.51,1.01
			c0.34,0.197,1.115,0.401,2.326,0.612c1.21,0.211,2.067,0.507,2.571,0.887c0.503,0.381,0.755,1.096,0.755,2.143
			c0,1.048-0.337,1.815-1.01,2.306c-0.673,0.489-1.656,0.734-2.948,0.734c-0.844,0-1.836-0.096-2.979-0.286l-0.612-0.102
			l0.082-1.326c1.55,0.231,2.72,0.347,3.509,0.347c0.789,0,1.391-0.125,1.806-0.377c0.415-0.252,0.622-0.674,0.622-1.266
			s-0.177-0.992-0.53-1.203c-0.354-0.211-1.129-0.411-2.326-0.603c-1.197-0.189-2.047-0.469-2.55-0.836s-0.755-1.047-0.755-2.04
			s0.35-1.728,1.051-2.204c0.701-0.476,1.574-0.714,2.622-0.714c0.83,0,1.87,0.096,3.122,0.286l0.571,0.102l-0.041,1.306
			C94.161,209.123,92.97,209.014,92.1,209.014z"/>
		<path fill="#6D6E70" d="M103.667,209.177h-3.244v4.876c0,1.17,0.084,1.938,0.255,2.306c0.17,0.367,0.575,0.551,1.214,0.551
			l1.816-0.122l0.102,1.265c-0.912,0.149-1.605,0.225-2.081,0.225c-1.061,0-1.795-0.259-2.204-0.775
			c-0.408-0.517-0.612-1.503-0.612-2.958v-5.366h-1.449v-1.326h1.449v-3.121h1.51v3.121h3.244V209.177z"/>
		<path fill="#6D6E70" d="M112.481,216.787l0.592-0.062l0.041,1.204c-1.55,0.217-2.876,0.326-3.979,0.326
			c-1.469,0-2.509-0.425-3.122-1.275c-0.612-0.85-0.918-2.173-0.918-3.968c0-3.577,1.421-5.366,4.264-5.366
			c1.374,0,2.4,0.385,3.081,1.153s1.021,1.976,1.021,3.621l-0.082,1.163h-6.732c0,1.129,0.204,1.965,0.612,2.509
			c0.408,0.545,1.119,0.816,2.132,0.816C110.404,216.909,111.434,216.868,112.481,216.787z M111.931,212.359
			c0-1.251-0.201-2.135-0.602-2.652c-0.401-0.517-1.054-0.775-1.958-0.775c-0.905,0-1.585,0.272-2.04,0.816
			c-0.456,0.544-0.691,1.415-0.704,2.611H111.931z"/>
		<path fill="#6D6E70" d="M117.377,218.052h-1.53v-10.201h1.51v0.714c1.102-0.612,2.156-0.918,3.163-0.918
			c1.36,0,2.275,0.367,2.744,1.102s0.704,2.04,0.704,3.918v5.386h-1.51v-5.346c0-1.414-0.14-2.383-0.418-2.907
			c-0.279-0.523-0.874-0.785-1.785-0.785c-0.436,0-0.895,0.064-1.377,0.193c-0.483,0.13-0.854,0.255-1.112,0.378l-0.388,0.184
			V218.052z"/>
		<path fill="#6D6E70" d="M130.619,207.646c0.449,0,1.21,0.082,2.285,0.245l0.49,0.061l-0.062,1.245
			c-1.088-0.122-1.891-0.184-2.407-0.184c-1.156,0-1.942,0.275-2.356,0.826c-0.415,0.551-0.623,1.571-0.623,3.061
			s0.194,2.526,0.582,3.111s1.194,0.877,2.418,0.877l2.407-0.184l0.061,1.265c-1.265,0.19-2.21,0.286-2.836,0.286
			c-1.591,0-2.689-0.408-3.295-1.225c-0.605-0.815-0.908-2.192-0.908-4.131s0.327-3.299,0.979-4.081
			C128.007,208.038,129.095,207.646,130.619,207.646z"/>
		<path fill="#6D6E70" d="M135.698,205.545v-1.774h1.53v1.774H135.698z M135.698,218.052v-10.201h1.53v10.201H135.698z"/>
		<path fill="#6D6E70" d="M147.368,210.932v5.223c0.041,0.503,0.435,0.803,1.184,0.897l-0.062,1.204
			c-1.075,0-1.884-0.272-2.428-0.816c-1.224,0.544-2.448,0.816-3.672,0.816c-0.938,0-1.653-0.266-2.142-0.796
			c-0.49-0.53-0.735-1.292-0.735-2.285c0-0.992,0.251-1.724,0.755-2.193c0.503-0.469,1.292-0.758,2.367-0.867l3.203-0.306v-0.877
			c0-0.694-0.15-1.19-0.449-1.489c-0.299-0.3-0.708-0.449-1.224-0.449c-1.088,0-2.217,0.068-3.387,0.204l-0.632,0.062l-0.062-1.163
			c1.496-0.299,2.822-0.449,3.979-0.449c1.156,0,1.996,0.266,2.52,0.796S147.368,209.803,147.368,210.932z M141.084,215.094
			c0,1.251,0.517,1.877,1.55,1.877c0.925,0,1.836-0.156,2.734-0.47l0.469-0.163v-3.366l-3.02,0.285
			c-0.612,0.055-1.054,0.231-1.326,0.531C141.22,214.087,141.084,214.522,141.084,215.094z"/>
		<path fill="#6D6E70" d="M162.711,203.403v14.648h-1.51v-0.693c-1.048,0.599-2.082,0.897-3.102,0.897
			c-0.544,0-1.02-0.068-1.428-0.204s-0.789-0.381-1.143-0.734c-0.734-0.734-1.102-2.092-1.102-4.07c0-1.979,0.329-3.407,0.989-4.284
			c0.659-0.878,1.751-1.316,3.274-1.316c0.789,0,1.625,0.089,2.51,0.266v-4.509H162.711z M157.406,216.746
			c0.244,0.096,0.561,0.143,0.949,0.143c0.387,0,0.822-0.064,1.305-0.193c0.482-0.13,0.86-0.255,1.133-0.378l0.408-0.184v-6.916
			c-0.871-0.163-1.68-0.245-2.428-0.245c-1.034,0-1.755,0.33-2.163,0.989c-0.408,0.66-0.612,1.684-0.612,3.071
			c0,1.577,0.238,2.639,0.715,3.183C156.93,216.474,157.161,216.651,157.406,216.746z"/>
		<path fill="#6D6E70" d="M172.605,216.787l0.592-0.062l0.041,1.204c-1.551,0.217-2.877,0.326-3.979,0.326
			c-1.469,0-2.51-0.425-3.122-1.275c-0.612-0.85-0.918-2.173-0.918-3.968c0-3.577,1.421-5.366,4.265-5.366
			c1.373,0,2.4,0.385,3.08,1.153s1.021,1.976,1.021,3.621l-0.082,1.163h-6.732c0,1.129,0.204,1.965,0.612,2.509
			c0.408,0.545,1.118,0.816,2.132,0.816C170.527,216.909,171.559,216.868,172.605,216.787z M172.055,212.359
			c0-1.251-0.201-2.135-0.602-2.652c-0.402-0.517-1.055-0.775-1.959-0.775s-1.585,0.272-2.04,0.816
			c-0.456,0.544-0.69,1.415-0.704,2.611H172.055z"/>
		<path fill="#6D6E70" d="M186.314,212.237v-1.408h3.897v6.938c-1.714,0.326-3.244,0.489-4.591,0.489
			c-2.054,0-3.479-0.592-4.273-1.775c-0.797-1.183-1.193-3.009-1.193-5.478s0.396-4.298,1.193-5.488
			c0.795-1.19,2.206-1.785,4.232-1.785c1.266,0,2.578,0.136,3.938,0.408l0.694,0.122l-0.062,1.306
			c-1.687-0.285-3.148-0.429-4.387-0.429c-1.563,0-2.617,0.453-3.162,1.357c-0.544,0.904-0.816,2.407-0.816,4.509
			s0.272,3.604,0.816,4.509c0.545,0.904,1.592,1.356,3.143,1.356c0.951,0,1.924-0.095,2.918-0.285v-4.346H186.314z"/>
		<path fill="#6D6E70" d="M200.229,210.932v5.223c0.041,0.503,0.435,0.803,1.184,0.897l-0.062,1.204
			c-1.074,0-1.884-0.272-2.428-0.816c-1.225,0.544-2.448,0.816-3.672,0.816c-0.939,0-1.653-0.266-2.143-0.796
			c-0.49-0.53-0.734-1.292-0.734-2.285c0-0.992,0.251-1.724,0.754-2.193c0.504-0.469,1.293-0.758,2.367-0.867l3.203-0.306v-0.877
			c0-0.694-0.15-1.19-0.449-1.489c-0.299-0.3-0.707-0.449-1.224-0.449c-1.089,0-2.218,0.068-3.387,0.204l-0.632,0.062l-0.063-1.163
			c1.496-0.299,2.822-0.449,3.979-0.449s1.996,0.266,2.52,0.796S200.229,209.803,200.229,210.932z M193.945,215.094
			c0,1.251,0.518,1.877,1.551,1.877c0.925,0,1.836-0.156,2.734-0.47l0.469-0.163v-3.366l-3.02,0.285
			c-0.611,0.055-1.055,0.231-1.326,0.531C194.082,214.087,193.945,214.522,193.945,215.094z"/>
		<path fill="#6D6E70" d="M206.452,209.014c-1.483,0-2.224,0.517-2.224,1.551c0,0.476,0.17,0.813,0.51,1.01s1.115,0.401,2.326,0.612
			c1.21,0.211,2.066,0.507,2.57,0.887c0.503,0.381,0.755,1.096,0.755,2.143c0,1.048-0.337,1.815-1.011,2.306
			c-0.672,0.489-1.655,0.734-2.947,0.734c-0.844,0-1.836-0.096-2.979-0.286l-0.612-0.102l0.081-1.326
			c1.551,0.231,2.721,0.347,3.51,0.347s1.391-0.125,1.806-0.377s0.622-0.674,0.622-1.266s-0.177-0.992-0.53-1.203
			c-0.354-0.211-1.13-0.411-2.326-0.603c-1.196-0.189-2.047-0.469-2.55-0.836c-0.504-0.367-0.756-1.047-0.756-2.04
			s0.351-1.728,1.051-2.204c0.701-0.476,1.574-0.714,2.622-0.714c0.829,0,1.87,0.096,3.122,0.286l0.57,0.102l-0.04,1.306
			C208.513,209.123,207.322,209.014,206.452,209.014z"/>
		<path fill="#6D6E70" d="M218.02,209.177h-3.243v4.876c0,1.17,0.085,1.938,0.255,2.306s0.574,0.551,1.214,0.551l1.815-0.122
			l0.103,1.265c-0.911,0.149-1.604,0.225-2.081,0.225c-1.061,0-1.795-0.259-2.203-0.775s-0.612-1.503-0.612-2.958v-5.366h-1.448
			v-1.326h1.448v-3.121h1.51v3.121h3.243V209.177z"/>
		<path fill="#6D6E70" d="M219.448,212.931c0-1.863,0.333-3.21,1-4.039c0.666-0.83,1.792-1.245,3.376-1.245
			c1.585,0,2.707,0.415,3.367,1.245c0.659,0.829,0.989,2.176,0.989,4.039s-0.313,3.217-0.938,4.061
			c-0.626,0.843-1.769,1.265-3.428,1.265c-1.66,0-2.803-0.422-3.428-1.265C219.762,216.147,219.448,214.794,219.448,212.931z
			 M221.02,212.9c0,1.489,0.18,2.533,0.541,3.132c0.359,0.599,1.115,0.897,2.264,0.897c1.149,0,1.9-0.296,2.255-0.888
			c0.354-0.592,0.53-1.635,0.53-3.132c0-1.496-0.197-2.526-0.592-3.091s-1.125-0.847-2.193-0.847c-1.067,0-1.803,0.282-2.203,0.847
			C221.22,210.384,221.02,211.411,221.02,212.9z"/>
		<path fill="#6D6E70" d="M233.872,209.014c-1.482,0-2.224,0.517-2.224,1.551c0,0.476,0.17,0.813,0.51,1.01s1.115,0.401,2.326,0.612
			c1.21,0.211,2.067,0.507,2.57,0.887c0.504,0.381,0.755,1.096,0.755,2.143c0,1.048-0.336,1.815-1.01,2.306
			c-0.673,0.489-1.656,0.734-2.948,0.734c-0.843,0-1.836-0.096-2.979-0.286l-0.612-0.102l0.082-1.326
			c1.551,0.231,2.72,0.347,3.509,0.347s1.391-0.125,1.806-0.377s0.622-0.674,0.622-1.266s-0.177-0.992-0.53-1.203
			s-1.129-0.411-2.325-0.603c-1.197-0.189-2.048-0.469-2.551-0.836s-0.755-1.047-0.755-2.04s0.351-1.728,1.051-2.204
			c0.7-0.476,1.574-0.714,2.622-0.714c0.829,0,1.87,0.096,3.121,0.286l0.571,0.102l-0.041,1.306
			C235.933,209.123,234.742,209.014,233.872,209.014z"/>
		<path fill="#6D6E70" d="M105.973,242.534v-14.118h8.446v1.387h-6.875v5.509h5.814v1.388h-5.814v5.835H105.973z"/>
		<path fill="#6D6E70" d="M122.437,232.333h1.53v10.201h-1.53v-0.714c-1.02,0.612-2.027,0.918-3.02,0.918
			c-1.387,0-2.309-0.36-2.765-1.081s-0.683-2.054-0.683-3.999v-5.325h1.53v5.305c0,1.482,0.129,2.476,0.388,2.979
			c0.258,0.504,0.843,0.755,1.755,0.755c0.449,0,0.904-0.064,1.367-0.193c0.462-0.13,0.816-0.255,1.061-0.378l0.367-0.184V232.333z"
			/>
		<path fill="#6D6E70" d="M128.435,242.534h-1.53v-10.201h1.51v0.714c1.102-0.612,2.156-0.918,3.163-0.918
			c1.36,0,2.275,0.367,2.744,1.102s0.704,2.04,0.704,3.918v5.386h-1.51v-5.346c0-1.414-0.14-2.383-0.418-2.907
			c-0.279-0.523-0.874-0.785-1.785-0.785c-0.436,0-0.895,0.064-1.377,0.193c-0.483,0.13-0.854,0.255-1.112,0.378l-0.388,0.184
			V242.534z"/>
		<path fill="#6D6E70" d="M144.797,241.27l0.592-0.062l0.041,1.204c-1.55,0.217-2.876,0.326-3.979,0.326
			c-1.469,0-2.509-0.425-3.122-1.275c-0.612-0.85-0.918-2.173-0.918-3.968c0-3.577,1.421-5.366,4.264-5.366
			c1.374,0,2.4,0.385,3.081,1.153s1.021,1.976,1.021,3.621l-0.082,1.163h-6.732c0,1.129,0.204,1.965,0.612,2.509
			c0.408,0.545,1.119,0.816,2.132,0.816C142.72,241.392,143.75,241.351,144.797,241.27z M144.247,236.842
			c0-1.251-0.201-2.135-0.602-2.652c-0.401-0.517-1.054-0.775-1.958-0.775c-0.905,0-1.585,0.272-2.04,0.816
			c-0.456,0.544-0.691,1.415-0.704,2.611H144.247z"/>
		<path fill="#6D6E70" d="M148.164,242.534v-10.201h1.51v1.388c1.184-0.816,2.428-1.354,3.734-1.612v1.551
			c-0.571,0.109-1.167,0.279-1.785,0.51c-0.619,0.231-1.092,0.436-1.418,0.612l-0.51,0.266v7.487H148.164z"/>
		<path fill="#6D6E70" d="M162.425,235.414v5.223c0.041,0.503,0.435,0.803,1.184,0.897l-0.062,1.204
			c-1.074,0-1.884-0.272-2.428-0.816c-1.225,0.544-2.448,0.816-3.672,0.816c-0.939,0-1.653-0.266-2.143-0.796
			c-0.49-0.53-0.734-1.292-0.734-2.285c0-0.992,0.251-1.724,0.754-2.193c0.504-0.469,1.293-0.758,2.367-0.867l3.203-0.306v-0.877
			c0-0.694-0.15-1.19-0.449-1.489c-0.299-0.3-0.707-0.449-1.224-0.449c-1.089,0-2.218,0.068-3.387,0.204l-0.632,0.062l-0.063-1.163
			c1.496-0.299,2.822-0.449,3.979-0.449s1.996,0.266,2.52,0.796S162.425,234.285,162.425,235.414z M156.141,239.576
			c0,1.251,0.518,1.877,1.551,1.877c0.925,0,1.836-0.156,2.734-0.47l0.469-0.163v-3.366l-3.02,0.285
			c-0.611,0.055-1.055,0.231-1.326,0.531C156.277,238.569,156.141,239.005,156.141,239.576z"/>
		<path fill="#6D6E70" d="M165.443,242.534v-10.201h1.51v1.388c1.184-0.816,2.429-1.354,3.734-1.612v1.551
			c-0.571,0.109-1.166,0.279-1.785,0.51c-0.619,0.231-1.092,0.436-1.418,0.612l-0.51,0.266v7.487H165.443z"/>
		<path fill="#6D6E70" d="M172.503,230.027v-1.774h1.53v1.774H172.503z M172.503,242.534v-10.201h1.53v10.201H172.503z"/>
		<path fill="#6D6E70" d="M176.521,237.413c0-1.863,0.334-3.21,1-4.039c0.666-0.83,1.792-1.245,3.377-1.245
			c1.584,0,2.707,0.415,3.366,1.245c0.659,0.829,0.989,2.176,0.989,4.039s-0.313,3.217-0.938,4.061
			c-0.627,0.843-1.77,1.265-3.428,1.265c-1.66,0-2.803-0.422-3.428-1.265C176.835,240.63,176.521,239.276,176.521,237.413z
			 M178.094,237.383c0,1.489,0.18,2.533,0.54,3.132s1.115,0.897,2.265,0.897c1.148,0,1.9-0.296,2.254-0.888s0.531-1.635,0.531-3.132
			c0-1.496-0.197-2.526-0.592-3.091s-1.126-0.847-2.193-0.847c-1.068,0-1.803,0.282-2.203,0.847
			C178.293,234.866,178.094,235.894,178.094,237.383z"/>
		<path fill="#6D6E70" d="M190.947,233.496c-1.483,0-2.225,0.517-2.225,1.551c0,0.476,0.17,0.813,0.51,1.01s1.115,0.401,2.326,0.612
			s2.067,0.507,2.57,0.887c0.504,0.381,0.756,1.096,0.756,2.143c0,1.048-0.338,1.815-1.011,2.306
			c-0.673,0.489-1.655,0.734-2.948,0.734c-0.844,0-1.836-0.096-2.979-0.286l-0.611-0.102l0.081-1.326
			c1.55,0.231,2.72,0.347,3.509,0.347s1.391-0.125,1.807-0.377c0.414-0.252,0.621-0.674,0.621-1.266s-0.176-0.992-0.529-1.203
			c-0.354-0.211-1.13-0.411-2.326-0.603c-1.197-0.189-2.047-0.469-2.551-0.836s-0.755-1.047-0.755-2.04s0.351-1.728,1.051-2.204
			c0.7-0.476,1.574-0.714,2.622-0.714c0.829,0,1.869,0.096,3.121,0.286l0.571,0.102l-0.04,1.306
			C193.008,233.605,191.816,233.496,190.947,233.496z"/>
	</g>
	<g>
		<polygon fill="#2F826D" points="196.383,166.576 209.148,166.576 209.148,159.683 203.617,149.555 196.383,149.555 
			103.617,149.555 96.383,149.555 90.851,159.683 90.851,166.576 103.617,166.576 		"/>
		<g>
			<g>
				<path fill="#2F826D" d="M99.634,99.81v45.531h100.731V99.81H99.634z M124.621,135.188c-4.769,0-8.646-3.879-8.646-8.647
					c0-3.21,1.762-6.012,4.366-7.503v-5.133h8.561v5.133c2.604,1.491,4.367,4.292,4.367,7.503
					C133.268,131.31,129.389,135.188,124.621,135.188z M176.697,135.188c-4.768,0-8.646-3.879-8.646-8.647
					c0-3.21,1.762-6.012,4.367-7.503v-6.127h8.561v6.127c2.604,1.491,4.367,4.293,4.367,7.503
					C185.346,131.31,181.467,135.188,176.697,135.188z"/>
				<path fill="#2F826D" d="M176.697,121.725c-2.656,0-4.816,2.16-4.816,4.816c0,2.657,2.16,4.817,4.816,4.817
					c2.658,0,4.818-2.16,4.818-4.817C181.516,123.885,179.355,121.725,176.697,121.725z"/>
			</g>
			<path fill="#2F826D" d="M124.621,121.725c-2.656,0-4.816,2.16-4.816,4.816c0,2.657,2.16,4.817,4.816,4.817
				c2.657,0,4.817-2.16,4.817-4.817C129.438,123.885,127.278,121.725,124.621,121.725z"/>
		</g>
		<path fill="#2F826D" d="M101.749,95.554h-6.383v-6.383c0,0,9.694-16.915,54.634-16.915c44.94,0,54.635,16.915,54.635,16.915v6.383
			h-6.383H101.749z"/>
	</g>
</g>
</svg>
