<?xml version="1.0" encoding="utf-8"?>
<!-- Generator: Adobe Illustrator 21.0.0, SVG Export Plug-In . SVG Version: 6.00 Build 0)  -->
<svg version="1.1" id="Layer_1" xmlns="http://www.w3.org/2000/svg" xmlns:xlink="http://www.w3.org/1999/xlink" x="0px" y="0px"
	 viewBox="0 0 277 100" style="enable-background:new 0 0 277 100;" xml:space="preserve">
<metadata><?xpacket begin="﻿" id="W5M0MpCehiHzreSzNTczkc9d"?>
<x:xmpmeta xmlns:x="adobe:ns:meta/" x:xmptk="Adobe XMP Core 5.6-c137 79.159768, 2016/08/11-13:24:42        ">
   <rdf:RDF xmlns:rdf="http://www.w3.org/1999/02/22-rdf-syntax-ns#">
      <rdf:Description rdf:about=""/>
   </rdf:RDF>
</x:xmpmeta>
                                                                                                    
                                                                                                    
                                                                                                    
                                                                                                    
                                                                                                    
                                                                                                    
                                                                                                    
                                                                                                    
                                                                                                    
                                                                                                    
                                                                                                    
                                                                                                    
                                                                                                    
                                                                                                    
                                                                                                    
                                                                                                    
                                                                                                    
                                                                                                    
                                                                                                    
                                                                                                    
                           
<?xpacket end="w"?></metadata>
<style type="text/css">
	.st0{fill:none;stroke:#542A44;stroke-width:0.8079;}
	.st1{fill:#542A44;}
	.st2{fill:#D4451D;}
	.st3{fill:#EA815E;}
</style>
<line id="XMLID_15_" class="st0" x1="155.3" y1="62.8" x2="155.3" y2="88.5"/>
<g>
	<path class="st1" d="M174.7,72.8l0.4,2.4c0.3,1.6,0.5,3.3,0.8,4.9c0.2,1.1,0.4,1.1,1.2,1.2l-0.1,0.4h-3.4l0.1-0.4l0.5-0.1
		c0.4-0.1,0.5-0.2,0.4-0.7l-0.3-1.9h-2.5c-0.2,0.4-0.6,1.2-0.9,1.7c-0.3,0.7-0.3,0.8,0.2,0.9l0.5,0.1l-0.1,0.4h-3l0.1-0.4
		c0.8-0.1,1-0.2,1.7-1.4l4-7L174.7,72.8z M172.1,78h2.2l-0.5-3h0L172.1,78z"/>
	<path class="st1" d="M177.8,77.1c0.8-0.7,1.8-1.4,2.2-1.4c0.4,0,0.5,0.5,0.3,1.2l-0.2,1h0c0.9-1.1,1.8-1.7,2.3-2
		c0.4-0.2,0.6-0.2,0.8-0.2c0.3,0,0.8,0.2,0.5,1.7c-0.2,0.7-0.4,1.8-0.7,2.9c-0.1,0.4-0.1,0.5,0,0.5c0.1,0,0.6-0.3,1-0.6l0.2,0.3
		c-0.7,0.7-1.9,1.3-2.2,1.3c-0.4,0-0.6-0.3-0.4-1.1l0.8-3.1c0.1-0.6,0.2-0.9-0.1-0.9c-0.5,0-1.8,1.3-2.3,2.2
		c-0.1,0.3-0.4,1.8-0.5,2.5h0l-1.4,0.4c0.2-0.7,0.4-1.5,0.5-2.2l0.5-2.2c0.1-0.5,0.1-0.7,0-0.7c-0.1,0-0.6,0.3-1,0.6L177.8,77.1z"/>
	<path class="st1" d="M195.1,73c0,0.3-0.1,1.3-0.2,2l-0.4,0c0-0.7-0.1-1-0.2-1.2c-0.2-0.3-0.5-0.3-1.4-0.3h-0.6
		c-0.5,0-0.5,0-0.6,0.5l-0.5,2.8h1.1c1.2,0,1.2-0.1,1.5-1.1h0.4l-0.5,2.7h-0.4c0.1-1,0.1-1.1-1.1-1.1h-1.1l-0.5,2.4
		c-0.2,1.2,0,1.3,1.2,1.3c0.9,0,1.4-0.1,1.8-0.4c0.3-0.3,0.6-0.7,0.9-1.3l0.4,0.1c-0.2,0.5-0.6,1.7-0.8,2.2h-6.3l0.1-0.4
		c1-0.1,1.2-0.2,1.4-1.6l0.9-4.7c0.3-1.4,0.2-1.5-0.9-1.6l0.1-0.4H195.1z"/>
	<path class="st1" d="M198.1,75.9c0.4-0.1,0.8-0.2,1.2-0.2c1.5,0,2.1,0.7,2.1,1.8c0,0.8-0.4,1.9-1.2,2.8c-0.7,0.7-1.6,1.3-2.6,1.5
		c-0.2,0-0.4,0-0.7-0.1l-0.3,1.8c-0.1,0.6-0.1,0.8,0.4,0.8l0.7,0.1v0.3l-3.5,0.2v-0.4c0.9-0.1,1-0.2,1.1-0.9l1.4-6.9
		c-0.4,0.1-0.7,0.2-1.1,0.3l-0.1-0.4c0.5-0.3,0.9-0.4,1.3-0.5l0.1-0.5c0.3-0.3,0.8-0.7,1.3-0.9l0.1,0.1L198.1,75.9z M197.1,80.9
		c0.1,0.2,0.4,0.3,0.7,0.3c0.9,0,2.1-1.7,2.1-3.4c0-1.1-0.7-1.4-1.2-1.4c-0.2,0-0.4,0-0.7,0.1L197.1,80.9z"/>
	<path class="st1" d="M202.4,77.1c0.8-0.7,1.9-1.4,2.4-1.4c0.5,0,0.4,0.5,0.3,1.1l-0.9,3.5c-0.1,0.3-0.1,0.4,0,0.4
		c0.1,0,0.6-0.3,1-0.6l0.2,0.3c-0.6,0.6-1.9,1.4-2.3,1.4c-0.3,0-0.5-0.2-0.4-1l0.8-3.4c0.1-0.5,0.1-0.6,0-0.6c-0.1,0-0.7,0.3-1,0.6
		L202.4,77.1z M205.6,73.2c0,0.5-0.4,0.9-0.9,0.9c-0.4,0-0.7-0.3-0.7-0.7c0-0.4,0.3-0.9,0.9-0.9C205.4,72.6,205.6,72.9,205.6,73.2z"
		/>
	<path class="st1" d="M210.2,76.4c0,0.2-0.1,0.4-0.3,0.5c-0.2,0.2-0.4,0.2-0.5,0.1c-0.2-0.3-0.6-0.5-1-0.5c-0.3,0-0.7,0.3-0.7,0.7
		c0,0.4,0.5,0.7,0.9,1c0.8,0.5,1.2,0.9,1.2,1.5c0,1.1-1.3,2.3-2.6,2.3c-0.5,0-1.4-0.4-1.4-0.8c0-0.3,0.2-0.5,0.4-0.7
		c0.2-0.1,0.4-0.1,0.5,0.1c0.4,0.5,0.9,0.7,1.3,0.7c0.3,0,0.7-0.3,0.7-0.7c0-0.3-0.1-0.6-0.8-1c-0.6-0.4-1.3-0.7-1.3-1.5
		c0-0.4,0.1-0.9,0.7-1.5c0.5-0.4,1.1-0.7,1.6-0.7C209.7,75.7,210.2,76,210.2,76.4z"/>
	<path class="st1" d="M215.3,80.4c-0.9,0.9-2.1,1.4-2.7,1.4c-1,0-1.6-0.7-1.6-1.9c0-1.1,0.5-2.4,1.4-3.3c0.6-0.5,1.5-1,2.3-1
		c0.6,0,1.1,0.3,1.1,0.7c0,0.2-0.1,0.4-0.4,0.6c-0.2,0.2-0.5,0.1-0.6,0c-0.3-0.5-0.6-0.6-0.9-0.6c-0.3,0-0.6,0.2-0.9,0.7
		c-0.4,0.6-0.6,1.7-0.6,2.5c0,0.8,0.3,1.3,0.9,1.3c0.8,0,1.4-0.5,1.8-0.8L215.3,80.4z"/>
	<path class="st1" d="M221.8,77.6c0,1.2-0.5,2.5-1.4,3.3c-0.6,0.5-1.5,0.9-2.2,0.9c-1.4,0-1.9-1.1-1.9-2.1c0-1.8,1-3,1.9-3.5
		c0.6-0.3,1.2-0.5,1.7-0.5C221.1,75.7,221.8,76.5,221.8,77.6z M219,76.4c-0.4,0.2-1.3,1.2-1.3,3.2c0,1,0.3,1.7,1,1.7
		c0.1,0,0.2,0,0.3-0.1c0.5-0.2,1.3-1.7,1.3-3.5c0-1-0.3-1.5-0.9-1.5C219.3,76.3,219.2,76.3,219,76.4z"/>
	<path class="st1" d="M225.5,75.9c0.4-0.1,0.8-0.2,1.2-0.2c1.5,0,2.1,0.7,2.1,1.8c0,0.8-0.4,1.9-1.2,2.8c-0.7,0.7-1.6,1.3-2.6,1.5
		c-0.2,0-0.4,0-0.7-0.1l-0.3,1.8c-0.1,0.6-0.1,0.8,0.4,0.8l0.7,0.1v0.3l-3.5,0.2v-0.4c0.9-0.1,1-0.2,1.1-0.9l1.4-6.9
		c-0.4,0.1-0.7,0.2-1.1,0.3l-0.1-0.4c0.5-0.3,0.9-0.4,1.3-0.5l0.1-0.5c0.3-0.3,0.8-0.7,1.3-0.9l0.1,0.1L225.5,75.9z M224.5,80.9
		c0.1,0.2,0.4,0.3,0.7,0.3c0.9,0,2.1-1.7,2.1-3.4c0-1.1-0.7-1.4-1.2-1.4c-0.2,0-0.4,0-0.7,0.1L224.5,80.9z"/>
	<path class="st1" d="M233.5,79.4c-0.5,0.6-1.1,1.3-1.6,1.7c-0.3,0.2-1.1,0.7-1.3,0.7c-0.3,0-0.8-0.3-0.8-1.5c0-1.3,0.7-2.8,1.5-3.5
		c0.6-0.6,1.8-1.1,2.8-1.1c0.2,0,0.4,0,0.8,0.1c0.3,0.1,0.5,0.1,0.8,0.1c-0.3,1.4-0.6,2.9-0.9,4.4c-0.1,0.3-0.1,0.5,0,0.5
		c0.1,0,0.6-0.3,1-0.6l0.2,0.3c-0.7,0.7-1.9,1.3-2.2,1.3c-0.2,0-0.5-0.1-0.3-1L233.5,79.4L233.5,79.4z M232.7,76.5
		c-0.3,0.2-0.7,0.5-1.1,1.4c-0.3,0.8-0.5,1.7-0.5,2.3c0,0.5,0.1,0.7,0.3,0.7c0.1,0,0.5-0.3,1-0.7c0.4-0.4,0.8-1,1.1-1.5
		c0.1-0.3,0.5-1.7,0.5-2.1c-0.2-0.1-0.4-0.1-0.7-0.1C233.1,76.3,232.9,76.4,232.7,76.5z"/>
	<path class="st1" d="M239.3,80.5c-0.7,0.7-1.9,1.4-2.2,1.4c-0.4,0-0.6-0.3-0.4-1.2l1.4-6.9c0.1-0.5,0.1-0.6-0.4-0.6h-0.6v-0.3
		c1.1-0.2,2.3-0.6,2.4-0.6c0.2,0,0.2,0.2,0.1,0.6l-1.6,7.6c-0.1,0.3-0.1,0.4,0,0.4c0.1,0,0.7-0.4,1-0.7L239.3,80.5z"/>
	<path class="st1" d="M247.3,73c0.9,0,1.6,0.1,2.2,0.5c0.5,0.3,0.9,0.9,0.9,1.7c0,1.8-1.6,2.8-3.2,3c-0.2,0-0.5,0-0.6,0l-0.9-0.2
		l-0.3,1.7c-0.3,1.4-0.2,1.5,1.1,1.6l-0.1,0.4h-3.9l0.1-0.4c1-0.1,1.1-0.2,1.4-1.6l0.9-4.7c0.3-1.4,0.2-1.5-0.8-1.6l0.1-0.4H247.3z
		 M245.9,77.4c0.2,0.1,0.5,0.2,0.8,0.2c1,0,2.2-1,2.2-2.5c0-1-0.5-1.6-1.6-1.6c-0.3,0-0.5,0-0.6,0.1c-0.1,0-0.1,0.2-0.2,0.4
		L245.9,77.4z"/>
	<path class="st1" d="M253.9,79.4c-0.5,0.6-1.1,1.3-1.6,1.7c-0.3,0.2-1.1,0.7-1.3,0.7c-0.3,0-0.8-0.3-0.8-1.5c0-1.3,0.7-2.8,1.5-3.5
		c0.6-0.6,1.8-1.1,2.8-1.1c0.2,0,0.4,0,0.8,0.1c0.3,0.1,0.5,0.1,0.8,0.1c-0.3,1.4-0.6,2.9-0.9,4.4c-0.1,0.3-0.1,0.5,0,0.5
		c0.1,0,0.6-0.3,1-0.6l0.2,0.3c-0.7,0.7-1.9,1.3-2.2,1.3c-0.2,0-0.5-0.1-0.3-1L253.9,79.4L253.9,79.4z M253.2,76.5
		c-0.3,0.2-0.7,0.5-1.1,1.4c-0.3,0.8-0.5,1.7-0.5,2.3c0,0.5,0.1,0.7,0.3,0.7c0.1,0,0.5-0.3,1-0.7c0.4-0.4,0.8-1,1.1-1.5
		c0.1-0.3,0.5-1.7,0.5-2.1c-0.2-0.1-0.4-0.1-0.7-0.1C253.6,76.3,253.4,76.4,253.2,76.5z"/>
	<path class="st1" d="M257,77.1c0.8-0.7,1.7-1.4,2.2-1.4c0.3,0,0.4,0.5,0.3,0.9l-0.2,1h0c0.6-1.2,1.4-2,1.8-2c0.3,0,0.6,0.1,0.7,0.4
		c0.1,0.2,0.1,0.4,0,0.6c-0.1,0.2-0.3,0.3-0.4,0.4c-0.1,0.1-0.3,0.1-0.4,0c-0.1-0.1-0.3-0.2-0.4-0.2c-0.1,0-0.3,0-0.6,0.4
		c-0.3,0.4-0.5,0.9-0.7,1.4c-0.3,1.3-0.4,2.2-0.5,2.7h0l-1.4,0.4c0.2-0.7,0.3-1.4,0.5-2.2l0.4-2.2c0.1-0.5,0.1-0.7,0-0.7
		c-0.1,0-0.6,0.3-0.9,0.6L257,77.1z"/>
	<path class="st1" d="M262.3,77.1c0.8-0.7,1.9-1.4,2.4-1.4c0.5,0,0.4,0.5,0.3,1.1l-0.9,3.5c-0.1,0.3-0.1,0.4,0,0.4
		c0.1,0,0.6-0.3,1-0.6l0.2,0.3c-0.6,0.6-1.9,1.4-2.3,1.4c-0.3,0-0.5-0.2-0.4-1l0.8-3.4c0.1-0.5,0.1-0.6,0-0.6c-0.1,0-0.7,0.3-1,0.6
		L262.3,77.1z M265.5,73.2c0,0.5-0.4,0.9-0.9,0.9c-0.4,0-0.7-0.3-0.7-0.7c0-0.4,0.3-0.9,0.9-0.9C265.3,72.6,265.5,72.9,265.5,73.2z"
		/>
	<path class="st1" d="M270.1,76.4c0,0.2-0.1,0.4-0.3,0.5c-0.2,0.2-0.4,0.2-0.5,0.1c-0.2-0.3-0.6-0.5-1-0.5c-0.3,0-0.7,0.3-0.7,0.7
		c0,0.4,0.5,0.7,0.9,1c0.8,0.5,1.2,0.9,1.2,1.5c0,1.1-1.3,2.3-2.6,2.3c-0.5,0-1.4-0.4-1.4-0.8c0-0.3,0.2-0.5,0.4-0.7
		c0.2-0.1,0.4-0.1,0.5,0.1c0.4,0.5,0.9,0.7,1.3,0.7c0.3,0,0.7-0.3,0.7-0.7c0-0.3-0.1-0.6-0.8-1c-0.6-0.4-1.3-0.7-1.3-1.5
		c0-0.4,0.1-0.9,0.7-1.5c0.5-0.4,1.1-0.7,1.6-0.7C269.6,75.7,270.1,76,270.1,76.4z"/>
	<path class="st1" d="M270.8,81.8c0.1-0.7,0.3-1.3,0.4-2l1.2-6.2c0.1-0.5,0.1-0.6-0.4-0.6h-0.6v-0.3c1.1-0.2,2.3-0.6,2.4-0.6
		c0.2,0,0.2,0.2,0.1,0.6l-1.1,5h0c0.9-1,1.8-1.7,2.4-1.9c0.3-0.1,0.5-0.2,0.7-0.2c0.3,0,0.8,0.2,0.5,1.4c-0.2,1-0.5,2.1-0.7,3.2
		c-0.1,0.3-0.1,0.5,0,0.5c0.1,0,0.6-0.3,0.9-0.6l0.2,0.3c-0.7,0.7-1.9,1.3-2.2,1.3c-0.4,0-0.5-0.3-0.3-1.1l0.7-3.1
		c0.1-0.6,0.2-0.9-0.1-0.9c-0.5,0-1.8,1.3-2.3,2.2c-0.1,0.4-0.4,1.8-0.5,2.6L270.8,81.8z"/>
</g>
<g id="XMLID_17_">
	<path id="XMLID_31_" class="st2" d="M77.3,13.1c-0.7,0.4-1.5,0.9-2.2,1.5c3.3,4.6,5.8,11.5,5.8,22.5v14.9l4.6,2.8V37.2
		C85.4,25.2,81.9,17.8,77.3,13.1z M70,21.6c1.6,3.9,2.8,9.3,2.8,16.9V47l3.8,2.4V38.6c0-9.6-2.1-15.8-5-20
		C71,19.5,70.5,20.5,70,21.6z M73.3,12.5c0.7-0.4,1.4-0.8,2.1-1.2c-1.2-1-2.5-1.9-3.7-2.6c-0.4,0.2-0.8,0.4-1.2,0.7
		c-0.1,0.1-0.2,0.2-0.3,0.2C71.2,10.5,72.3,11.4,73.3,12.5z M53.2,17.1c1.2-1.6,3-4.1,7.8-5.3c0.3,0.2,0.6,0.3,1,0.5
		c0.3-0.3,0.6-0.6,0.9-0.9c-0.5-0.2-1.1-0.5-1.6-0.7C56.3,12.2,54,15.5,53.2,17.1z M65,14.5c0.9,0.8,1.9,1.8,2.7,3.1
		c0.5-0.6,1-1.2,1.5-1.8c-1-1-2.1-1.9-3.2-2.6C65.7,13.7,65.3,14.1,65,14.5z M69,7.4c-1.3-0.6-2.7-1.1-3.9-1.5
		c-2.1,0.8-3.2,1.3-4.6,2.2c-0.7,0.5-1.9,1.5-2.1,1.7c2.4-1.6,4.2-2.4,6.4-2.9c0.9,0.3,1.9,0.7,2.8,1.2C68.1,7.9,68.5,7.6,69,7.4z"
		/>
	<path id="XMLID_21_" class="st3" d="M70.2,9c1.5-1,3-1.6,4.3-2.1c2.2,0.5,4,1.3,6.4,2.9c-0.1-0.2-1.3-1.2-2.1-1.7
		c-1.4-0.9-2.5-1.4-4.6-2.2c-8.6,2.8-20.3,9.3-20.3,31.4v17.7l4.6-2.8V37.1C58.5,20,64.5,12.7,70.2,9z M78,10.9
		c-6.3,2.4-15.3,7.9-15.3,27.7v10.8l3.8-2.4v-8.5c0-19.1,7-24.3,11.8-26.7c4.7,1.2,6.5,3.6,7.8,5.3C85.4,15.5,83,12.2,78,10.9z"/>
	<path id="XMLID_3_" class="st1" d="M49.1,57.9V35.5c0-23.7,12.3-30.4,20.6-33.3c8.3,2.9,20.6,9.6,20.6,33.3v22.4l5.2,3.3V35.6
		C95.5,11,80.7,4.1,69.7,1c-11,3-25.8,9.9-25.8,34.6v25.6L49.1,57.9z"/>
</g>
<g>
	<path class="st1" d="M0,70.6c0.1-1.6,0.2-3.2,0.3-4.4h0.4c0.3,0.6,0.6,0.6,1.2,0.6h9.9c0.6,0,0.8-0.1,1.1-0.6h0.4
		c0,1,0.1,2.8,0.3,4.4l-0.7,0c-0.2-1.2-0.5-1.9-0.9-2.2c-0.4-0.5-1.2-0.6-2.7-0.6H8.1v11c0,2.6,0.2,2.8,2.4,2.9v0.7H3.2v-0.7
		c2.1-0.1,2.3-0.3,2.3-2.9v-11H4.6c-2.1,0-2.7,0.3-3.1,0.7c-0.3,0.3-0.6,1-0.9,2.1H0z"/>
	<path class="st1" d="M16.6,74L16.6,74c0.6-0.9,1.6-2.4,2.8-2.4c0.9,0,1.5,0.7,1.5,1.4c0,0.6-0.4,1.3-1,1.5c-0.3,0.1-0.5,0-0.7-0.1
		c-0.3-0.3-0.7-0.5-1.1-0.5c-0.4,0-1,0.3-1.5,1.3v4.8c0,1.3,0.1,1.5,1.9,1.6v0.7h-5.9v-0.7c1.4-0.1,1.6-0.3,1.6-1.6v-5.3
		c0-1.5,0-1.5-1.5-1.6v-0.6c1.2-0.2,2.7-0.5,4-0.9V74z"/>
	<path class="st1" d="M26,80.1c0,1.3,0.1,1.5,1.6,1.6v0.7h-5.7v-0.7c1.5-0.1,1.6-0.3,1.6-1.6v-5.3c0-1.5,0-1.5-1.5-1.6v-0.6
		c1.2-0.2,2.7-0.5,4-0.9V80.1z M26.2,67.6c0,0.8-0.7,1.5-1.6,1.5c-0.8,0-1.5-0.7-1.5-1.5c0-0.9,0.7-1.6,1.5-1.6
		C25.5,66,26.2,66.7,26.2,67.6z"/>
	<path class="st1" d="M32.6,73.3c0.5-0.3,1-0.6,1.4-0.9c0.8-0.5,1.4-0.8,2.1-0.8c1.9,0,3.1,1.3,3.1,3.2v5.3c0,1.3,0.1,1.4,1.4,1.6
		v0.7h-5.4v-0.7c1.4-0.1,1.5-0.2,1.5-1.6v-4.6c0-1.4-0.7-2.2-1.9-2.2c-0.7,0-1.5,0.4-2.2,1v5.9c0,1.3,0.1,1.4,1.3,1.6v0.7h-5.5v-0.7
		c1.6-0.1,1.7-0.2,1.7-1.6v-5.4c0-1.5,0-1.5-1.5-1.6v-0.6c1.2-0.2,2.7-0.5,4-0.9V73.3z"/>
	<path class="st1" d="M45.7,80.1c0,1.3,0.1,1.5,1.6,1.6v0.7h-5.7v-0.7c1.5-0.1,1.6-0.3,1.6-1.6v-5.3c0-1.5,0-1.5-1.5-1.6v-0.6
		c1.2-0.2,2.7-0.5,4-0.9V80.1z M46,67.6c0,0.8-0.7,1.5-1.6,1.5c-0.8,0-1.5-0.7-1.5-1.5c0-0.9,0.7-1.6,1.5-1.6
		C45.2,66,46,66.7,46,67.6z"/>
	<path class="st1" d="M52.1,68.9V72h2.5c0.3,0.3,0.2,0.9-0.1,1.1h-2.3V79c0,1.9,0.9,2.2,1.4,2.2c0.4,0,0.9-0.1,1.5-0.4l0.3,0.6
		l-2.1,1.1c-0.4,0.2-0.6,0.2-0.8,0.2c-1.8,0-2.7-0.9-2.7-2.8v-6.7H48l-0.1-0.3l0.8-0.8h1v-1.4l2.1-1.8L52.1,68.9z"/>
	<path class="st1" d="M60.8,72v0.7l-0.7,0.1c-0.5,0.1-0.5,0.4-0.3,1l2,5.3c0.5-1,1.8-4.6,2.1-5.4c0.3-0.7,0.2-0.9-0.3-1l-0.9-0.1V72
		h4.4v0.7c-1.3,0.2-1.4,0.3-2.1,1.6c-0.6,1.3-1.6,3.3-2.9,6.6c-1.6,3.7-2.2,5.3-2.6,6.6c-0.2,0.5-0.5,0.6-0.8,0.6
		c-0.7,0-1.4-0.7-1.3-1.2c0-0.4,0.2-0.6,0.6-0.9c0.7-0.5,1.4-1.2,1.8-2c0.2-0.4,0.5-1.1,0.6-1.4c0.1-0.3,0.1-0.4-0.1-0.8
		c-1.1-3.1-2.4-6.2-2.9-7.6c-0.6-1.4-0.7-1.5-2-1.6V72H60.8z"/>
	<path class="st1" d="M83.9,70.9c-0.8-2.7-2.3-3.5-4.5-3.5c-3.9,0-5.7,3.3-5.7,6.8c0,4.4,2.2,7.5,5.7,7.5c2.6,0,3.8-1.3,5-3.9
		l0.7,0.1c-0.3,1.1-0.8,3.1-1.2,4c-0.7,0.2-2.8,0.7-4.5,0.7c-6.3,0-8.8-4.1-8.8-7.9c0-5,3.9-8.4,9.2-8.4c2.1,0,3.6,0.5,4.3,0.6
		c0.2,1.3,0.3,2.4,0.4,3.8L83.9,70.9z"/>
	<path class="st1" d="M89.7,73.2c0.8-0.8,2-1.5,3.2-1.6c2.2,0,3.4,1.3,3.4,3.5v4.9c0,1.4,0.1,1.5,1.4,1.6v0.7h-5.2v-0.7
		c1.2-0.1,1.4-0.2,1.4-1.6v-4.3c0-1.7-0.8-2.5-2.1-2.5c-0.7,0-1.5,0.3-2.1,0.9v5.9c0,1.4,0.1,1.5,1.3,1.6v0.7h-5.4v-0.7
		c1.5-0.1,1.6-0.2,1.6-1.6V68.3c0-1.4,0-1.4-1.6-1.5v-0.6c1-0.1,2.8-0.5,4-0.8V73.2z"/>
	<path class="st1" d="M102.7,78.7c0,1.8,0.9,2.3,1.8,2.3c0.7,0,1.5-0.3,2.3-1V74c0-0.9-0.1-1-1-1.1l-0.7-0.1v-0.6
		c1.1,0,3.1-0.3,4.1-0.4v8.1c0,1,0.1,1.2,0.8,1.2h0.9v0.7c-1.3,0.1-2.8,0.6-4,0.9l-0.2-0.2v-1.6c-0.5,0.4-1,0.7-1.5,1.1
		c-0.7,0.5-1.3,0.7-2,0.7c-1.9,0-3.1-1.1-3.1-3.2V74c0-0.9-0.2-1-0.8-1.1l-0.6-0.1v-0.6c1,0,2.8-0.3,3.9-0.4V78.7z"/>
	<path class="st1" d="M115.8,74L115.8,74c0.6-0.9,1.6-2.4,2.8-2.4c0.9,0,1.5,0.7,1.5,1.4c0,0.6-0.4,1.3-1,1.5
		c-0.3,0.1-0.5,0-0.7-0.1c-0.3-0.3-0.7-0.5-1.1-0.5c-0.4,0-1,0.3-1.5,1.3v4.8c0,1.3,0.1,1.5,1.9,1.6v0.7h-5.9v-0.7
		c1.4-0.1,1.6-0.3,1.6-1.6v-5.3c0-1.5,0-1.5-1.5-1.6v-0.6c1.2-0.2,2.7-0.5,4-0.9V74z"/>
	<path class="st1" d="M129.9,80c-1,1.5-2.5,2.6-4,2.6c-3.2,0-5-2.4-5-5c0-1.8,0.8-3.4,2.2-4.5c1.5-1.1,3.1-1.4,4-1.4
		c0.6,0,1.7,0.2,2.2,0.6c0.2,0.2,0.3,0.4,0.3,0.6c0,0.7-0.5,1.2-0.9,1.2c-0.1,0-0.3,0-0.5-0.2c-1-0.8-1.7-1-2.4-1
		c-0.9,0-2.4,0.8-2.4,3.5c0,3.4,2.3,4.4,3.5,4.4c1,0,1.7-0.3,2.7-1.2L129.9,80z"/>
	<path class="st1" d="M134.2,73.2c0.8-0.8,2-1.5,3.2-1.6c2.2,0,3.4,1.3,3.4,3.5v4.9c0,1.4,0.1,1.5,1.4,1.6v0.7H137v-0.7
		c1.2-0.1,1.4-0.2,1.4-1.6v-4.3c0-1.7-0.8-2.5-2.1-2.5c-0.7,0-1.5,0.3-2.1,0.9v5.9c0,1.4,0.1,1.5,1.3,1.6v0.7h-5.4v-0.7
		c1.5-0.1,1.6-0.2,1.6-1.6V68.3c0-1.4,0-1.4-1.6-1.5v-0.6c1-0.1,2.8-0.5,4-0.8V73.2z"/>
</g>
<g>
	<path class="st1" d="M42.2,92l1.8,5h0c0.4-1.3,0.9-3.3,1.1-3.9c0.2-0.7,0.1-0.8-0.3-0.8l-0.4,0V92h2.4v0.3
		c-0.7,0.1-0.8,0.1-1.1,1.1c-0.2,0.4-0.9,2.6-1.8,5.6h-0.5L41.7,94h0L40,98.9h-0.5l-1.7-5.6c-0.3-0.9-0.5-1-1-1V92h2.8v0.3l-0.3,0
		c-0.4,0.1-0.5,0.1-0.3,0.7l1.2,4.1h0l1.6-5H42.2z"/>
	<path class="st1" d="M49.4,91.8l0.7,2c0.5,1.3,0.9,2.6,1.3,3.6c0.4,0.9,0.5,1,1.1,1.1v0.3h-2.8v-0.3l0.3,0c0.4-0.1,0.4-0.2,0.3-0.6
		c-0.1-0.3-0.4-1-0.6-1.5h-1.9c-0.1,0.3-0.3,0.9-0.5,1.3c-0.2,0.6-0.1,0.7,0.4,0.7l0.3,0v0.3h-2.3v-0.3c0.7-0.1,0.8-0.1,1.1-1.1
		L49,92L49.4,91.8z M48,95.9h1.7l-0.8-2.3h0L48,95.9z"/>
	<path class="st1" d="M56,92v0.3c-0.8,0.1-0.9,0.1-0.9,1.3v3.7c0,0.6,0.1,0.9,0.2,1c0.2,0.1,0.5,0.1,0.9,0.1c0.5,0,1,0,1.2-0.3
		c0.2-0.2,0.3-0.6,0.5-1.1l0.3,0.1c-0.1,0.3-0.3,1.4-0.4,1.7h-4.9v-0.3c0.9-0.1,1-0.1,1-1.3v-3.7c0-1.1-0.1-1.2-0.9-1.3V92H56z"/>
	<path class="st1" d="M61.6,92v0.3c-0.8,0.1-0.9,0.1-0.9,1.3v3.7c0,0.6,0.1,0.9,0.2,1c0.2,0.1,0.5,0.1,0.9,0.1c0.5,0,1,0,1.2-0.3
		c0.2-0.2,0.3-0.6,0.5-1.1l0.3,0.1c-0.1,0.3-0.3,1.4-0.4,1.7h-4.9v-0.3c0.9-0.1,1-0.1,1-1.3v-3.7c0-1.1-0.1-1.2-0.9-1.3V92H61.6z"/>
	<path class="st1" d="M70.4,93.6c-0.2-0.6-0.5-1.3-1.4-1.3c-0.7,0-1.1,0.5-1.1,1.1c0,0.6,0.4,1,1.2,1.3l0.3,0.1
		c0.8,0.4,1.6,0.9,1.6,2c0,1.3-1,2.1-2.4,2.1c-0.4,0-0.8-0.1-1.1-0.2c-0.3-0.1-0.5-0.2-0.6-0.2c-0.1-0.3-0.2-1-0.3-1.6l0.3-0.1
		c0.2,0.5,0.8,1.7,1.9,1.7c0.7,0,1.1-0.5,1.1-1.2c0-0.6-0.3-1-1.1-1.4l-0.3-0.2c-0.7-0.4-1.6-0.9-1.6-1.9c0-1.1,0.8-2,2.2-2
		c0.3,0,0.7,0,1,0.1c0.2,0.1,0.3,0.1,0.4,0.1c0,0.4,0.1,0.8,0.2,1.4L70.4,93.6z"/>
	<path class="st1" d="M71.6,93.6c0-0.7,0.1-1.4,0.1-1.9h0.2c0.1,0.3,0.3,0.3,0.5,0.3h4.3c0.3,0,0.3-0.1,0.5-0.3h0.2
		c0,0.4,0.1,1.2,0.1,1.9l-0.3,0c-0.1-0.5-0.2-0.8-0.4-1c-0.2-0.2-0.5-0.3-1.2-0.3h-0.5v4.8c0,1.1,0.1,1.2,1.1,1.3v0.3H73v-0.3
		c0.9-0.1,1-0.1,1-1.3v-4.8h-0.4c-0.9,0-1.2,0.1-1.3,0.3c-0.1,0.1-0.3,0.4-0.4,0.9H71.6z"/>
	<path class="st1" d="M81.1,92c0.8,0,1.3,0.1,1.7,0.4c0.4,0.3,0.7,0.7,0.7,1.3c0,0.9-0.5,1.5-1.4,1.8c0.2,0.3,0.6,1,0.9,1.5
		c0.4,0.6,0.7,1,0.9,1.2c0.3,0.3,0.4,0.4,0.7,0.5l0,0.3l-0.4,0c-1.1-0.1-1.5-0.4-1.9-1c-0.3-0.5-0.7-1.2-1-1.7
		c-0.2-0.3-0.3-0.4-0.6-0.4h-0.3v1.4c0,1.1,0.1,1.2,0.9,1.3v0.3h-3v-0.3c0.8-0.1,0.9-0.1,0.9-1.3v-3.7c0-1.1-0.1-1.2-0.9-1.3V92
		H81.1z M80.3,95.5h0.4c0.4,0,0.7-0.1,1-0.3c0.4-0.3,0.6-0.8,0.6-1.3c0-1.1-0.8-1.5-1.4-1.5c-0.5,0-0.5,0-0.5,0.4V95.5z"/>
	<path class="st1" d="M89.7,92c0,0.2,0.1,0.9,0.1,1.6l-0.3,0c-0.1-0.5-0.2-0.8-0.4-1c-0.2-0.2-0.5-0.2-1.2-0.2h-0.5
		c-0.4,0-0.4,0-0.4,0.4V95h0.9c0.9,0,0.9-0.1,1-0.9h0.3v2.2h-0.3c-0.1-0.8-0.1-0.9-1-0.9H87v1.7c0,0.6,0,0.9,0.2,1
		c0.2,0.1,0.6,0.1,1,0.1c0.5,0,1,0,1.2-0.3c0.2-0.2,0.4-0.6,0.5-1.1l0.3,0.1c0,0.4-0.3,1.4-0.4,1.7h-5.1v-0.3c0.9-0.1,1-0.1,1-1.3
		v-3.7c0-1.1-0.1-1.2-0.9-1.3V92H89.7z"/>
	<path class="st1" d="M95.6,92c0,0.2,0.1,0.9,0.1,1.6l-0.3,0c-0.1-0.5-0.2-0.8-0.4-1c-0.2-0.2-0.5-0.2-1.2-0.2h-0.5
		c-0.4,0-0.4,0-0.4,0.4V95h0.9c0.9,0,0.9-0.1,1-0.9h0.3v2.2h-0.3c-0.1-0.8-0.1-0.9-1-0.9h-0.9v1.7c0,0.6,0,0.9,0.2,1
		c0.2,0.1,0.6,0.1,1,0.1c0.5,0,1,0,1.2-0.3c0.2-0.2,0.4-0.6,0.5-1.1l0.3,0.1c0,0.4-0.3,1.4-0.4,1.7h-5.1v-0.3c0.9-0.1,1-0.1,1-1.3
		v-3.7c0-1.1-0.1-1.2-0.9-1.3V92H95.6z"/>
	<path class="st1" d="M96.6,93.6c0-0.7,0.1-1.4,0.1-1.9h0.2c0.1,0.3,0.3,0.3,0.5,0.3h4.3c0.3,0,0.3-0.1,0.5-0.3h0.2
		c0,0.4,0.1,1.2,0.1,1.9l-0.3,0c-0.1-0.5-0.2-0.8-0.4-1c-0.2-0.2-0.5-0.3-1.2-0.3h-0.5v4.8c0,1.1,0.1,1.2,1.1,1.3v0.3h-3.2v-0.3
		c0.9-0.1,1-0.1,1-1.3v-4.8h-0.4c-0.9,0-1.2,0.1-1.3,0.3c-0.1,0.1-0.3,0.4-0.4,0.9H96.6z"/>
</g>
</svg>
