<?xml version="1.0" encoding="UTF-8"?>
<svg width="36px" height="36px" viewBox="0 0 36 36" version="1.1" xmlns="http://www.w3.org/2000/svg" xmlns:xlink="http://www.w3.org/1999/xlink">
    <!-- Generator: sketchtool 45.2 (43514) - http://www.bohemiancoding.com/sketch -->
    <title>03F21336-00D4-4674-B738-1072B18F9CD5_Color</title>
    <desc>Created with sketchtool.</desc>
    <defs></defs>
    <g id="Cambios-BBCL-2" stroke="none" stroke-width="1" fill="none" fill-rule="evenodd">
        <g id="Nota-2" transform="translate(-1074.000000, -192.000000)">
            <g id="RRSS-Color-Copy" transform="translate(1074.000000, 192.000000)">
                <g id="Facebook_36">
                    <path d="M0,18 C0,8.05887401 8.05887401,0 18,0 C27.941126,0 36,8.05887401 36,18 C36,27.941126 27.941126,36 18,36 C8.05887401,36 0,27.941126 0,18 Z" id="back" fill="#3B5998"></path>
                    <path d="M19.2659185,27.9836075 L19.2659185,18.1906572 L21.9677639,18.1906572 L22.3258168,14.8159523 L19.2659185,14.8159523 L19.2705089,13.12688 C19.2705089,12.246705 19.3540928,11.7750871 20.6176063,11.7750871 L22.30669,11.7750871 L22.30669,8.4 L19.6044621,8.4 C16.3586517,8.4 15.2162106,10.037095 15.2162106,12.7901739 L15.2162106,14.8163345 L13.1929825,14.8163345 L13.1929825,18.1910394 L15.2162106,18.1910394 L15.2162106,27.9836075 L19.2659185,27.9836075 Z" id="Shape" fill="#FFFFFF"></path>
                </g>
            </g>
        </g>
    </g>
</svg>