<?xml version="1.0" encoding="UTF-8"?>
<svg width="36px" height="36px" viewBox="0 0 36 36" version="1.1" xmlns="http://www.w3.org/2000/svg" xmlns:xlink="http://www.w3.org/1999/xlink">
    <!-- Generator: sketchtool 45.2 (43514) - http://www.bohemiancoding.com/sketch -->
    <title>1BD5242A-86C9-4DEB-BA69-85ECE3E89CEB_Color</title>
    <desc>Created with sketchtool.</desc>
    <defs></defs>
    <g id="Cambios-BBCL-2" stroke="none" stroke-width="1" fill="none" fill-rule="evenodd">
        <g id="Nota-2" transform="translate(-1224.000000, -192.000000)">
            <g id="RRSS-Color-Copy" transform="translate(1074.000000, 192.000000)">
                <g id="Youtube_36" transform="translate(150.000000, 0.000000)">
                    <path d="M0,18 C0,8.05887401 8.05887401,0 18,0 C27.941126,0 36,8.05887401 36,18 C36,27.941126 27.941126,36 18,36 C8.05887401,36 0,27.941126 0,18 Z" id="back" fill="#CE1312"></path>
                    <path d="M27.6179653,14.3768072 C27.6179653,14.3768072 27.4287266,13.0248278 26.8489187,12.4294664 C26.1131248,11.6477096 25.2884553,11.6440307 24.9105825,11.5986582 C22.2031996,11.4 18.1421253,11.4 18.1421253,11.4 L18.133661,11.4 C18.133661,11.4 14.0725867,11.4 11.3652039,11.5986582 C10.9867265,11.6440307 10.1626615,11.6477096 9.42626308,12.4294664 C8.84645509,13.0248278 8.65782101,14.3768072 8.65782101,14.3768072 C8.65782101,14.3768072 8.46435015,15.9648465 8.46435015,17.5522726 L8.46435015,19.0409828 C8.46435015,20.6290221 8.65782101,22.2164482 8.65782101,22.2164482 C8.65782101,22.2164482 8.84645509,23.5684276 9.42626308,24.163789 C10.1626615,24.9455458 11.1294112,24.9210201 11.5598839,25.0025681 C13.1076508,25.1534012 18.1378932,25.2 18.1378932,25.2 C18.1378932,25.2 22.2031996,25.1938686 24.9105825,24.9952104 C25.2884553,24.9492247 26.1131248,24.9455458 26.8489187,24.163789 C27.4287266,23.5684276 27.6179653,22.2164482 27.6179653,22.2164482 C27.6179653,22.2164482 27.8114362,20.6290221 27.8114362,19.0409828 L27.8114362,17.5522726 C27.8114362,15.9648465 27.6179653,14.3768072 27.6179653,14.3768072 L27.6179653,14.3768072 Z" id="Youtube" fill="#FFFFFF"></path>
                    <polygon id="Path" fill="#CE1312" points="16.1403065 20.8448483 16.1397019 15.3320834 21.3670427 18.0979695"></polygon>
                </g>
            </g>
        </g>
    </g>
</svg>